<svg width="680" height="292" viewBox="0 0 680 292" xmlns="http://www.w3.org/2000/svg" xmlns:xlink="http://www.w3.org/1999/xlink">
  <defs><clipPath id="clip0"><rect x="0" y="0" width="48" height="48" rx="6"/></clipPath><clipPath id="clip1"><rect x="0" y="0" width="48" height="48" rx="6"/></clipPath><clipPath id="clip2"><rect x="0" y="0" width="48" height="48" rx="6"/></clipPath></defs>
  <rect width="680" height="292" rx="16" fill="#120b22"/>
  <text x="24" y="30" font-family="sans-serif" font-size="12" font-weight="600" fill="#f0a8d0" letter-spacing="0.08em">&#127925;  recently played</text>

  <line x1="24" y1="52" x2="656" y2="52" stroke="#2d1f45" stroke-width="0.5"/>
  <g transform="translate(24,64)">
    <image href="https://i.scdn.co/image/ab67616d00004851ebd5ae28b66fa7de841c8727" x="0" y="0" width="48" height="48" clip-path="url(#clip0)"/>
    <text x="64" y="16" font-family="sans-serif" font-size="13" font-weight="600" fill="#f5e6ff">Doppelgänger</text>
    <text x="64" y="32" font-family="sans-serif" font-size="11" fill="#c9a8e0">Harumakigohan</text>
    <text x="64" y="46" font-family="sans-serif" font-size="10" fill="#9b7cb8">14 hours ago</text>
    <circle cx="632" cy="24" r="3" fill="#f0a8d0"/>
  </g>
  <line x1="24" y1="124" x2="656" y2="124" stroke="#2d1f45" stroke-width="0.5"/>
  <g transform="translate(24,136)">
    <image href="https://i.scdn.co/image/ab67616d0000485165c1170533084838cc1d10d4" x="0" y="0" width="48" height="48" clip-path="url(#clip1)"/>
    <text x="64" y="16" font-family="sans-serif" font-size="13" font-weight="600" fill="#f5e6ff">INTERNET ANGEL</text>
    <text x="64" y="32" font-family="sans-serif" font-size="11" fill="#c9a8e0">Aiobahn +81</text>
    <text x="64" y="46" font-family="sans-serif" font-size="10" fill="#9b7cb8">19 hours ago</text>
    <circle cx="632" cy="24" r="3" fill="#9b7cb8"/>
  </g>
  <line x1="24" y1="196" x2="656" y2="196" stroke="#2d1f45" stroke-width="0.5"/>
  <g transform="translate(24,208)">
    <image href="https://i.scdn.co/image/ab67616d00004851ebd5ae28b66fa7de841c8727" x="0" y="0" width="48" height="48" clip-path="url(#clip2)"/>
    <text x="64" y="16" font-family="sans-serif" font-size="13" font-weight="600" fill="#f5e6ff">Doppelgänger</text>
    <text x="64" y="32" font-family="sans-serif" font-size="11" fill="#c9a8e0">Harumakigohan</text>
    <text x="64" y="46" font-family="sans-serif" font-size="10" fill="#9b7cb8">19 hours ago</text>
    <circle cx="632" cy="24" r="3" fill="#9b7cb8"/>
  </g>
</svg>